<svg width="600" height="600" viewBox="0 0 600 600" xmlns="http://www.w3.org/2000/svg">
  <defs>
    <linearGradient id="bg" x1="0" y1="0" x2="1" y2="1">
      <stop offset="0%" stop-color="#99f6e4" stop-opacity="0.55"/>
      <stop offset="100%" stop-color="#ffffff"/>
    </linearGradient>
    <linearGradient id="body" x1="0" y1="0" x2="0" y2="1">
      <stop offset="0%" stop-color="#99f6e4"/>
      <stop offset="100%" stop-color="#0d9488"/>
    </linearGradient>
    <radialGradient id="spot" cx="50%" cy="34%" r="50%">
      <stop offset="0%" stop-color="#99f6e4" stop-opacity="0.65"/>
      <stop offset="100%" stop-color="#99f6e4" stop-opacity="0"/>
    </radialGradient>
  </defs>
  <rect width="600" height="600" fill="url(#bg)"/>
  <ellipse cx="300" cy="270" rx="230" ry="230" fill="url(#spot)"/>
  <ellipse cx="300" cy="522" rx="140" ry="16" fill="#0f2064" opacity="0.09"/>
  
  <rect x="222" y="235" width="156" height="250" rx="26" fill="url(#body)"/>
  
  <rect x="252" y="380" width="96" height="40" rx="8" fill="#ffffff" opacity="0.92"/>
  <rect x="262" y="394" width="76" height="4" rx="2" fill="#0d9488" opacity="0.35"/>
  <rect x="262" y="404" width="58" height="4" rx="2" fill="#0d9488" opacity="0.2"/>

  <rect x="252" y="205" width="96" height="34" rx="10" fill="#0d9488" opacity="0.85"/>
  <rect x="262" y="172" width="76" height="30" rx="8" fill="#475569"/>
  <rect x="196" y="176" width="66" height="16" rx="8" fill="#475569"/>
  <circle cx="200" cy="184" r="7" fill="#334155"/>

  <text x="300" y="565" text-anchor="middle" font-family="Arial, sans-serif" font-size="15" font-weight="700" letter-spacing="2" fill="#0d9488">BLUE SATCHEL</text>
  <text x="300" y="583" text-anchor="middle" font-family="Arial, sans-serif" font-size="11" letter-spacing="3" fill="#94a3b8">CLEANSER</text>
</svg>